<svg id="visual" viewBox="0 0 960 540" width="960" height="540" xmlns="http://www.w3.org/2000/svg" xmlns:xlink="http://www.w3.org/1999/xlink" version="1.1"><path d="M0 128L22.8 132.5C45.7 137 91.3 146 137 148.2C182.7 150.3 228.3 145.7 274 141.2C319.7 136.7 365.3 132.3 411.2 134C457 135.7 503 143.3 548.8 149.8C594.7 156.3 640.3 161.7 686 153.2C731.7 144.7 777.3 122.3 823 121.5C868.7 120.7 914.3 141.3 937.2 151.7L960 162L960 0L937.2 0C914.3 0 868.7 0 823 0C777.3 0 731.7 0 686 0C640.3 0 594.7 0 548.8 0C503 0 457 0 411.2 0C365.3 0 319.7 0 274 0C228.3 0 182.7 0 137 0C91.3 0 45.7 0 22.8 0L0 0Z" fill="#228BE6" stroke-linecap="round" stroke-linejoin="miter"></path></svg>